<svg
  id="svg"
  version="1.1"
  xmlns="http://www.w3.org/2000/svg"
  xmlns:xlink="http://www.w3.org/1999/xlink"
  width="400"
  height="400"
  viewBox="0, 0, 400,400"
><g id="svgg">
<path
      id="path0"
      d="M131.400 60.467 C 128.834 60.674,126.118 61.151,124.885 61.611 C 123.722 62.045,122.462 62.406,122.085 62.413 C 121.708 62.419,120.500 62.868,119.400 63.409 C 118.300 63.950,117.096 64.394,116.724 64.396 C 116.352 64.398,115.939 64.575,115.807 64.789 C 115.675 65.002,114.809 65.549,113.883 66.003 C 110.552 67.637,109.344 68.345,108.827 68.967 C 108.538 69.315,108.159 69.600,107.984 69.600 C 107.477 69.600,104.474 72.300,100.878 75.991 C 97.157 79.810,97.060 79.924,95.431 82.413 C 94.788 83.396,93.843 84.840,93.331 85.622 C 92.819 86.403,92.400 87.326,92.400 87.673 C 92.400 88.019,92.130 88.526,91.800 88.800 C 91.470 89.074,91.200 89.519,91.200 89.789 C 91.200 90.060,90.776 91.077,90.259 92.051 C 89.741 93.024,89.196 94.631,89.048 95.621 C 88.899 96.611,88.503 97.951,88.167 98.598 C 86.617 101.586,86.596 120.474,88.139 123.497 C 88.449 124.103,88.904 125.550,89.150 126.711 C 89.395 127.873,89.876 129.250,90.219 129.772 C 90.810 130.674,89.122 133.190,87.921 133.198 C 86.506 133.208,76.400 143.559,76.400 144.999 C 76.400 145.127,76.007 145.810,75.526 146.516 C 73.593 149.356,73.320 149.847,73.035 151.000 C 72.871 151.660,72.492 152.473,72.191 152.806 C 71.891 153.140,71.450 154.283,71.212 155.347 C 70.973 156.411,70.471 157.848,70.095 158.541 C 68.948 160.654,69.075 178.242,70.257 181.000 C 70.729 182.100,71.238 183.755,71.389 184.677 C 71.539 185.599,71.918 186.566,72.231 186.826 C 72.544 187.086,72.800 187.519,72.800 187.789 C 72.800 190.779,80.941 201.100,86.596 205.281 C 87.698 206.096,88.780 206.906,89.000 207.081 C 89.220 207.256,90.030 207.714,90.800 208.098 C 91.570 208.481,92.470 208.965,92.800 209.172 C 94.352 210.148,98.344 211.758,101.800 212.803 C 105.374 213.884,112.393 214.297,116.911 213.691 C 121.042 213.138,121.991 213.423,122.671 215.420 C 123.304 217.276,123.326 217.324,124.589 219.400 C 125.124 220.280,125.788 221.450,126.064 222.000 C 126.721 223.307,131.389 229.118,132.812 230.400 C 135.931 233.211,139.902 236.317,140.700 236.569 C 141.195 236.726,141.600 237.002,141.600 237.184 C 141.600 237.365,142.275 237.804,143.100 238.159 C 143.925 238.513,144.870 238.974,145.200 239.182 C 146.175 239.796,150.390 241.450,153.400 242.400 C 159.293 244.260,172.927 244.271,178.090 242.421 C 179.350 241.969,180.812 241.600,181.341 241.600 C 181.870 241.600,182.508 241.352,182.759 241.050 C 183.010 240.747,184.018 240.275,185.000 240.000 C 185.982 239.725,186.990 239.253,187.241 238.950 C 187.492 238.648,187.878 238.400,188.097 238.400 C 189.994 238.400,200.091 229.993,202.800 226.157 C 207.190 219.941,207.161 219.989,208.257 217.256 C 208.746 216.037,208.917 215.931,210.098 216.119 C 212.415 216.487,214.831 217.202,215.726 217.784 C 218.810 219.787,235.680 219.645,239.527 217.583 C 240.331 217.152,241.296 216.800,241.673 216.800 C 242.050 216.800,243.204 216.350,244.238 215.800 C 245.273 215.250,246.353 214.800,246.640 214.800 C 246.926 214.800,247.304 214.564,247.480 214.277 C 247.656 213.989,248.385 213.517,249.100 213.228 C 249.815 212.939,250.400 212.557,250.400 212.378 C 250.400 212.200,250.739 211.946,251.153 211.815 C 252.158 211.496,258.243 205.443,260.000 203.014 C 263.057 198.788,263.495 198.492,266.200 198.832 C 274.992 199.934,289.475 198.501,293.086 196.172 C 293.573 195.857,294.338 195.600,294.786 195.600 C 295.233 195.600,296.455 195.157,297.500 194.615 C 298.545 194.073,299.670 193.530,300.000 193.408 C 300.330 193.287,301.410 192.654,302.400 192.002 C 303.390 191.350,304.586 190.644,305.058 190.434 C 309.750 188.344,320.520 176.855,323.652 170.600 C 323.982 169.940,324.451 169.040,324.693 168.600 C 326.059 166.120,327.200 163.524,327.200 162.896 C 327.200 162.501,327.469 161.794,327.798 161.324 C 328.127 160.854,328.667 159.182,328.998 157.609 C 329.329 156.035,329.767 154.434,329.972 154.052 C 331.218 151.724,331.113 132.918,329.835 129.600 C 329.538 128.830,329.163 127.390,329.000 126.400 C 328.837 125.410,328.366 123.932,327.952 123.116 C 327.538 122.300,327.200 121.351,327.200 121.009 C 327.200 120.442,325.677 117.067,324.759 115.600 C 324.553 115.270,324.107 114.397,323.770 113.659 C 323.432 112.922,322.805 111.943,322.378 111.484 C 321.950 111.025,321.600 110.484,321.600 110.282 C 321.600 110.081,321.152 109.350,320.604 108.658 C 320.055 107.966,319.290 106.963,318.904 106.429 C 317.776 104.872,310.750 97.895,309.000 96.594 C 308.120 95.940,307.310 95.294,307.200 95.158 C 307.090 95.023,306.460 94.604,305.800 94.228 C 305.140 93.852,303.880 93.116,303.000 92.592 C 300.593 91.157,295.778 88.800,295.257 88.800 C 295.004 88.800,294.125 88.440,293.304 88.000 C 292.484 87.560,291.443 87.200,290.992 87.200 C 290.541 87.200,289.189 86.863,287.986 86.450 C 282.534 84.581,267.356 84.552,261.400 86.399 C 260.080 86.809,258.370 87.270,257.600 87.423 C 256.830 87.577,255.845 87.949,255.411 88.251 C 253.605 89.507,251.376 88.971,250.222 87.002 C 248.840 84.643,245.523 80.678,243.036 78.411 C 241.942 77.415,240.624 76.195,240.106 75.700 C 239.588 75.205,239.014 74.800,238.831 74.800 C 238.648 74.800,238.286 74.545,238.027 74.233 C 237.454 73.542,230.991 69.837,229.600 69.401 C 229.050 69.229,227.973 68.753,227.206 68.344 C 226.439 67.935,225.449 67.598,225.006 67.595 C 224.563 67.592,223.030 67.206,221.600 66.738 C 218.091 65.588,205.524 65.480,202.000 66.569 C 200.790 66.942,199.080 67.400,198.200 67.585 C 196.082 68.031,192.010 69.767,189.677 71.218 C 188.645 71.860,187.379 72.571,186.864 72.797 C 185.841 73.246,180.641 77.408,179.470 78.714 C 178.756 79.511,176.411 78.905,176.403 77.921 C 176.381 75.597,162.314 65.459,156.800 63.794 C 156.250 63.628,155.445 63.246,155.011 62.946 C 154.577 62.646,153.819 62.400,153.326 62.400 C 152.833 62.400,151.468 62.040,150.293 61.600 C 148.499 60.929,138.230 59.808,136.200 60.062 C 135.980 60.089,133.820 60.271,131.400 60.467 M156.400 124.791 C 157.453 125.457,157.285 157.056,156.224 157.832 C 155.275 158.526,153.926 158.566,153.280 157.920 C 152.571 157.211,152.590 124.951,153.300 124.665 C 154.142 124.325,155.767 124.391,156.400 124.791 M224.216 124.806 C 226.351 125.618,224.473 129.000,222.131 128.561 C 219.841 128.131,216.989 131.025,217.273 133.492 C 217.391 134.519,217.546 134.609,219.400 134.717 C 222.351 134.891,223.340 137.667,220.631 138.175 C 220.174 138.261,218.900 138.482,217.800 138.666 L 215.800 139.000 215.473 141.800 C 215.293 143.340,214.858 145.680,214.506 147.000 C 214.155 148.320,213.654 151.110,213.393 153.200 C 212.910 157.074,211.776 162.118,211.145 163.200 C 210.953 163.530,210.491 164.389,210.119 165.108 C 208.359 168.518,199.625 170.526,199.283 167.600 C 199.097 166.007,200.016 165.117,201.824 165.142 C 205.476 165.192,207.207 162.863,208.011 156.817 C 208.258 154.956,208.621 153.135,208.816 152.771 C 209.011 152.406,209.366 150.418,209.604 148.354 C 209.843 146.289,210.317 143.678,210.658 142.550 C 211.499 139.770,211.302 139.046,209.637 138.800 C 206.793 138.380,207.184 135.118,210.107 134.876 C 211.763 134.738,212.827 133.262,213.350 130.377 C 214.076 126.366,220.141 123.257,224.216 124.806 M121.400 134.563 C 127.301 136.514,124.555 139.790,118.333 138.222 C 115.733 137.567,115.625 137.571,114.033 138.383 C 110.995 139.933,112.603 142.750,117.167 143.872 C 118.928 144.305,122.576 146.310,123.613 147.415 C 125.840 149.788,124.748 155.479,121.800 156.860 C 121.360 157.066,120.550 157.494,120.000 157.811 C 116.616 159.764,107.525 157.488,107.276 154.627 C 107.088 152.462,108.593 152.009,111.405 153.385 C 115.908 155.588,121.653 153.914,119.991 150.882 C 119.337 149.689,115.600 147.600,114.120 147.600 C 113.605 147.600,112.471 147.150,111.600 146.600 C 110.729 146.050,109.871 145.600,109.694 145.600 C 109.097 145.600,107.995 143.278,107.765 141.533 C 106.961 135.436,113.669 132.007,121.400 134.563 M141.792 134.398 C 147.345 135.986,147.939 137.427,147.979 149.424 C 148.004 156.492,148.036 156.422,144.258 157.568 C 138.415 159.341,130.653 158.170,129.583 155.355 C 129.401 154.876,129.015 154.405,128.726 154.309 C 127.946 154.049,128.007 148.421,128.800 147.442 C 131.710 143.850,134.344 142.670,139.072 142.842 C 142.379 142.962,143.423 142.154,142.565 140.137 C 141.717 138.142,138.733 137.289,135.640 138.157 C 131.276 139.381,129.657 138.904,130.244 136.567 C 130.490 135.588,131.671 135.088,136.200 134.048 C 138.535 133.512,138.737 133.524,141.792 134.398 M199.000 134.513 C 202.577 135.394,202.601 135.409,202.727 136.726 C 202.975 139.307,201.973 139.553,196.911 138.159 C 195.010 137.636,194.685 137.648,193.311 138.292 C 190.244 139.731,191.676 142.838,195.867 143.839 C 204.352 145.866,206.828 153.408,200.244 157.175 C 195.332 159.985,185.413 158.017,186.272 154.403 C 186.794 152.206,187.807 152.022,190.165 153.694 C 193.409 155.995,199.610 154.297,198.857 151.314 C 198.554 150.115,194.329 147.664,192.492 147.621 C 189.347 147.548,186.239 143.845,186.508 140.490 C 186.942 135.080,191.823 132.745,199.000 134.513 M237.426 134.632 C 239.315 135.174,240.690 136.224,242.732 138.684 C 244.901 141.296,244.661 150.407,242.326 154.091 C 239.838 158.018,232.197 160.043,229.091 157.600 C 228.531 157.160,227.867 156.800,227.614 156.800 C 225.945 156.800,223.881 153.045,223.196 148.759 C 222.056 141.632,225.021 135.915,230.656 134.379 C 233.469 133.613,233.934 133.630,237.426 134.632 M278.122 134.053 C 280.977 134.626,281.735 135.562,280.928 137.516 L 280.385 138.832 277.492 138.572 C 271.975 138.075,269.195 139.978,268.611 144.649 C 267.723 151.758,271.251 155.365,278.283 154.539 C 279.946 154.343,280.565 154.416,280.833 154.840 C 284.050 159.920,270.468 159.802,266.380 154.715 C 263.212 150.773,262.963 142.478,265.896 138.588 C 267.868 135.971,268.745 135.361,271.800 134.475 C 275.192 133.492,275.295 133.485,278.122 134.053 M176.600 134.784 C 179.693 135.489,182.576 140.249,182.593 144.680 C 182.604 147.309,182.417 147.376,174.481 147.600 L 167.400 147.800 167.273 149.128 C 166.882 153.195,172.591 155.434,178.916 153.694 C 180.676 153.210,182.180 154.591,181.342 155.920 C 179.018 159.604,168.236 159.083,164.557 155.110 C 160.123 150.321,160.909 139.728,165.959 136.229 C 168.456 134.498,172.774 133.912,176.600 134.784 M261.381 134.864 C 263.694 135.918,261.792 138.708,258.759 138.708 C 254.781 138.708,253.648 141.368,253.611 150.800 C 253.585 157.386,253.521 157.579,251.267 157.882 C 249.756 158.084,249.585 158.013,249.210 157.025 C 248.772 155.874,248.622 136.528,249.043 135.433 C 249.308 134.742,252.329 134.521,253.020 135.141 C 253.232 135.332,254.375 135.268,255.600 134.997 C 258.553 134.344,260.159 134.307,261.381 134.864 M298.145 134.777 C 301.215 135.490,303.976 139.354,304.300 143.392 C 304.644 147.674,304.782 147.600,296.435 147.600 C 288.018 147.600,287.791 147.694,289.232 150.578 C 290.970 154.058,296.864 155.662,300.243 153.574 L 301.580 152.747 302.388 154.074 C 303.395 155.724,303.397 155.670,302.249 156.910 C 299.653 159.711,288.934 158.507,286.491 155.141 C 286.211 154.755,285.691 154.149,285.336 153.793 C 283.845 152.302,283.216 145.925,284.167 141.948 C 285.585 136.020,291.164 133.158,298.145 134.777 M170.395 138.257 C 168.119 139.195,165.960 143.506,167.700 143.638 C 169.912 143.806,176.785 143.657,177.146 143.433 C 178.549 142.566,176.680 139.480,174.067 138.350 C 172.081 137.491,172.244 137.495,170.395 138.257 M292.408 138.334 C 289.680 139.374,287.557 143.538,289.700 143.645 C 292.568 143.788,298.362 143.670,298.700 143.462 C 299.723 142.829,298.440 139.444,296.875 138.648 C 294.987 137.688,294.240 137.635,292.408 138.334 M231.921 138.468 C 226.937 139.820,226.130 150.312,230.743 153.791 C 233.023 155.511,238.400 154.092,238.400 151.771 C 238.400 151.507,238.669 150.776,238.998 150.146 C 239.354 149.463,239.596 147.913,239.598 146.309 C 239.603 140.493,236.424 137.247,231.921 138.468 M135.800 147.121 C 130.396 149.095,132.048 154.629,138.022 154.564 C 142.022 154.520,142.400 154.177,142.400 150.600 C 142.400 146.618,140.262 145.491,135.800 147.121 M225.716 278.732 C 223.910 279.323,222.209 280.031,221.936 280.304 C 221.663 280.577,221.270 280.800,221.061 280.800 C 219.490 280.800,211.600 288.108,211.600 289.563 C 211.600 289.879,211.347 290.421,211.038 290.769 C 207.558 294.677,207.393 312.994,210.814 315.600 C 210.958 315.710,211.329 316.259,211.638 316.820 C 212.967 319.234,213.869 320.326,216.244 322.400 C 217.630 323.610,219.381 324.876,220.135 325.212 C 220.889 325.549,221.753 326.019,222.053 326.257 C 222.354 326.495,223.140 326.818,223.800 326.976 C 224.460 327.133,225.630 327.563,226.400 327.931 C 229.644 329.482,240.759 328.376,243.600 326.221 C 243.930 325.970,244.701 325.515,245.314 325.208 C 250.171 322.776,251.003 320.271,247.774 317.807 L 246.407 316.765 244.511 318.582 C 243.468 319.582,242.451 320.400,242.251 320.400 C 242.051 320.400,241.688 320.648,241.444 320.950 C 238.766 324.269,228.739 324.097,223.260 320.638 C 215.178 315.536,212.079 303.539,216.424 294.169 C 217.540 291.762,222.096 286.400,223.025 286.400 C 223.282 286.400,223.948 286.041,224.505 285.603 C 228.798 282.226,238.345 283.312,243.335 287.745 C 244.714 288.970,245.698 288.720,247.892 286.590 L 249.352 285.172 247.003 282.986 C 245.711 281.784,244.476 280.800,244.259 280.800 C 244.041 280.800,243.579 280.549,243.231 280.242 C 240.528 277.853,230.927 277.025,225.716 278.732 M149.697 279.532 C 149.300 279.784,149.215 284.831,149.297 303.426 L 149.400 327.000 152.000 327.000 L 154.600 327.000 154.800 308.200 C 154.970 292.218,155.086 289.400,155.575 289.400 C 155.894 289.400,156.308 290.012,156.506 290.777 C 156.702 291.534,157.209 292.593,157.631 293.131 C 158.054 293.668,158.400 294.453,158.400 294.875 C 158.400 295.296,158.753 296.307,159.185 297.121 C 160.386 299.384,162.000 303.097,162.000 303.596 C 162.000 303.841,162.343 304.707,162.762 305.521 C 163.180 306.334,164.008 308.170,164.600 309.600 C 165.192 311.030,165.997 312.830,166.388 313.600 C 166.780 314.370,167.224 315.573,167.376 316.272 C 167.527 316.972,167.910 317.759,168.226 318.021 C 168.542 318.283,168.802 318.791,168.804 319.149 C 168.806 319.507,169.250 320.700,169.791 321.800 C 170.332 322.900,170.781 324.123,170.787 324.518 C 170.833 327.143,175.222 328.202,176.214 325.827 C 176.530 325.072,176.971 324.342,177.194 324.204 C 177.417 324.066,177.602 323.648,177.604 323.276 C 177.606 322.904,178.050 321.700,178.591 320.600 C 179.132 319.500,179.581 318.366,179.587 318.079 C 179.594 317.793,179.957 316.893,180.394 316.079 C 181.630 313.775,183.200 310.174,183.200 309.641 C 183.200 309.375,183.540 308.493,183.956 307.679 C 185.552 304.556,186.800 301.697,186.803 301.160 C 186.804 300.852,187.163 300.060,187.600 299.400 C 188.037 298.740,188.402 297.930,188.410 297.600 C 188.418 297.270,188.868 296.100,189.409 295.000 C 189.950 293.900,190.394 292.788,190.396 292.529 C 190.401 291.873,191.539 290.800,192.229 290.800 C 192.715 290.800,192.800 293.438,192.800 308.586 C 192.800 328.910,192.488 327.353,196.512 327.120 L 198.600 327.000 198.600 303.200 L 198.600 279.400 194.742 279.286 L 190.884 279.172 189.842 281.036 C 189.269 282.062,188.800 283.101,188.800 283.345 C 188.800 283.589,188.350 284.736,187.800 285.894 C 187.250 287.052,186.350 288.948,185.800 290.106 C 185.250 291.264,184.800 292.502,184.800 292.857 C 184.800 293.212,184.552 293.708,184.250 293.959 C 183.947 294.210,183.475 295.218,183.200 296.200 C 182.925 297.182,182.453 298.190,182.150 298.441 C 181.848 298.692,181.598 299.191,181.596 299.549 C 181.594 299.907,181.150 301.100,180.609 302.200 C 180.068 303.300,179.619 304.434,179.613 304.721 C 179.606 305.007,179.247 305.907,178.815 306.721 C 177.934 308.383,176.724 311.054,175.832 313.306 C 174.852 315.781,173.052 316.109,172.592 313.895 C 172.444 313.183,171.980 312.005,171.561 311.277 C 171.143 310.550,170.800 309.758,170.800 309.517 C 170.800 309.277,170.328 308.072,169.750 306.840 C 166.750 300.439,165.200 296.885,165.200 296.404 C 165.200 296.159,164.856 295.293,164.435 294.479 C 164.014 293.666,163.192 291.920,162.609 290.600 C 162.026 289.280,161.200 287.534,160.774 286.721 C 160.348 285.907,160.000 285.045,160.000 284.804 C 160.000 284.563,159.456 283.204,158.792 281.783 L 157.584 279.200 153.892 279.206 C 151.861 279.209,149.974 279.356,149.697 279.532 "
      stroke="none"
      fill="#fafbfb"
      fill-rule="evenodd"
    /><path
      id="path1"
      d="M0.000 200.000 L 0.000 400.000 200.000 400.000 L 400.000 400.000 400.000 200.000 L 400.000 0.000 200.000 0.000 L 0.000 0.000 0.000 200.000 M142.378 60.406 C 146.366 60.679,148.818 61.048,150.293 61.600 C 151.468 62.040,152.833 62.400,153.326 62.400 C 153.819 62.400,154.577 62.646,155.011 62.946 C 155.445 63.246,156.250 63.628,156.800 63.794 C 162.314 65.459,176.381 75.597,176.403 77.921 C 176.411 78.905,178.756 79.511,179.470 78.714 C 180.641 77.408,185.841 73.246,186.864 72.797 C 187.379 72.571,188.645 71.860,189.677 71.218 C 192.010 69.767,196.082 68.031,198.200 67.585 C 199.080 67.400,200.790 66.942,202.000 66.569 C 205.524 65.480,218.091 65.588,221.600 66.738 C 223.030 67.206,224.563 67.592,225.006 67.595 C 225.449 67.598,226.439 67.935,227.206 68.344 C 227.973 68.753,229.050 69.229,229.600 69.401 C 230.991 69.837,237.454 73.542,238.027 74.233 C 238.286 74.545,238.648 74.800,238.831 74.800 C 239.014 74.800,239.588 75.205,240.106 75.700 C 240.624 76.195,241.942 77.415,243.036 78.411 C 245.523 80.678,248.840 84.643,250.222 87.002 C 251.376 88.971,253.605 89.507,255.411 88.251 C 255.845 87.949,256.830 87.577,257.600 87.423 C 258.370 87.270,260.080 86.809,261.400 86.399 C 267.356 84.552,282.534 84.581,287.986 86.450 C 289.189 86.863,290.541 87.200,290.992 87.200 C 291.443 87.200,292.484 87.560,293.304 88.000 C 294.125 88.440,295.004 88.800,295.257 88.800 C 295.778 88.800,300.593 91.157,303.000 92.592 C 303.880 93.116,305.140 93.852,305.800 94.228 C 306.460 94.604,307.090 95.023,307.200 95.158 C 307.310 95.294,308.120 95.940,309.000 96.594 C 310.750 97.895,317.776 104.872,318.904 106.429 C 319.290 106.963,320.055 107.966,320.604 108.658 C 321.152 109.350,321.600 110.081,321.600 110.282 C 321.600 110.484,321.950 111.025,322.378 111.484 C 322.805 111.943,323.432 112.922,323.770 113.659 C 324.107 114.397,324.553 115.270,324.759 115.600 C 325.677 117.067,327.200 120.442,327.200 121.009 C 327.200 121.351,327.538 122.300,327.952 123.116 C 328.366 123.932,328.837 125.410,329.000 126.400 C 329.163 127.390,329.538 128.830,329.835 129.600 C 331.113 132.918,331.218 151.724,329.972 154.052 C 329.767 154.434,329.329 156.035,328.998 157.609 C 328.667 159.182,328.127 160.854,327.798 161.324 C 327.469 161.794,327.200 162.501,327.200 162.896 C 327.200 163.524,326.059 166.120,324.693 168.600 C 324.451 169.040,323.982 169.940,323.652 170.600 C 320.520 176.855,309.750 188.344,305.058 190.434 C 304.586 190.644,303.390 191.350,302.400 192.002 C 301.410 192.654,300.330 193.287,300.000 193.408 C 299.670 193.530,298.545 194.073,297.500 194.615 C 296.455 195.157,295.233 195.600,294.786 195.600 C 294.338 195.600,293.573 195.857,293.086 196.172 C 289.475 198.501,274.992 199.934,266.200 198.832 C 263.495 198.492,263.057 198.788,260.000 203.014 C 258.243 205.443,252.158 211.496,251.153 211.815 C 250.739 211.946,250.400 212.200,250.400 212.378 C 250.400 212.557,249.815 212.939,249.100 213.228 C 248.385 213.517,247.656 213.989,247.480 214.277 C 247.304 214.564,246.926 214.800,246.640 214.800 C 246.353 214.800,245.273 215.250,244.238 215.800 C 243.204 216.350,242.050 216.800,241.673 216.800 C 241.296 216.800,240.331 217.152,239.527 217.583 C 235.680 219.645,218.810 219.787,215.726 217.784 C 214.831 217.202,212.415 216.487,210.098 216.119 C 208.917 215.931,208.746 216.037,208.257 217.256 C 207.161 219.989,207.190 219.941,202.800 226.157 C 200.091 229.993,189.994 238.400,188.097 238.400 C 187.878 238.400,187.492 238.648,187.241 238.950 C 186.990 239.253,185.982 239.725,185.000 240.000 C 184.018 240.275,183.010 240.747,182.759 241.050 C 182.508 241.352,181.870 241.600,181.341 241.600 C 180.812 241.600,179.350 241.969,178.090 242.421 C 172.927 244.271,159.293 244.260,153.400 242.400 C 150.390 241.450,146.175 239.796,145.200 239.182 C 144.870 238.974,143.925 238.513,143.100 238.159 C 142.275 237.804,141.600 237.365,141.600 237.184 C 141.600 237.002,141.195 236.726,140.700 236.569 C 139.902 236.317,135.931 233.211,132.812 230.400 C 131.389 229.118,126.721 223.307,126.064 222.000 C 125.788 221.450,125.124 220.280,124.589 219.400 C 123.326 217.324,123.304 217.276,122.671 215.420 C 121.991 213.423,121.042 213.138,116.911 213.691 C 112.393 214.297,105.374 213.884,101.800 212.803 C 98.344 211.758,94.352 210.148,92.800 209.172 C 92.470 208.965,91.570 208.481,90.800 208.098 C 90.030 207.714,89.220 207.256,89.000 207.081 C 88.780 206.906,87.698 206.096,86.596 205.281 C 80.941 201.100,72.800 190.779,72.800 187.789 C 72.800 187.519,72.544 187.086,72.231 186.826 C 71.918 186.566,71.539 185.599,71.389 184.677 C 71.238 183.755,70.729 182.100,70.257 181.000 C 69.075 178.242,68.948 160.654,70.095 158.541 C 70.471 157.848,70.973 156.411,71.212 155.347 C 71.450 154.283,71.891 153.140,72.191 152.806 C 72.492 152.473,72.871 151.660,73.035 151.000 C 73.320 149.847,73.593 149.356,75.526 146.516 C 76.007 145.810,76.400 145.127,76.400 144.999 C 76.400 143.559,86.506 133.208,87.921 133.198 C 89.122 133.190,90.810 130.674,90.219 129.772 C 89.876 129.250,89.395 127.873,89.150 126.711 C 88.904 125.550,88.449 124.103,88.139 123.497 C 86.596 120.474,86.617 101.586,88.167 98.598 C 88.503 97.951,88.899 96.611,89.048 95.621 C 89.196 94.631,89.741 93.024,90.259 92.051 C 90.776 91.077,91.200 90.060,91.200 89.789 C 91.200 89.519,91.470 89.074,91.800 88.800 C 92.130 88.526,92.400 88.019,92.400 87.673 C 92.400 87.326,92.819 86.403,93.331 85.622 C 93.843 84.840,94.788 83.396,95.431 82.413 C 97.060 79.924,97.157 79.810,100.878 75.991 C 104.474 72.300,107.477 69.600,107.984 69.600 C 108.159 69.600,108.538 69.315,108.827 68.967 C 109.344 68.345,110.552 67.637,113.883 66.003 C 114.809 65.549,115.675 65.002,115.807 64.789 C 115.939 64.575,116.352 64.398,116.724 64.396 C 117.096 64.394,118.300 63.950,119.400 63.409 C 120.500 62.868,121.708 62.419,122.085 62.413 C 122.462 62.406,123.722 62.045,124.885 61.611 C 126.118 61.151,128.834 60.674,131.400 60.467 C 133.820 60.271,135.980 60.089,136.200 60.062 C 136.420 60.034,139.200 60.189,142.378 60.406 M153.300 124.665 C 152.590 124.951,152.571 157.211,153.280 157.920 C 153.926 158.566,155.275 158.526,156.224 157.832 C 157.285 157.056,157.453 125.457,156.400 124.791 C 155.767 124.391,154.142 124.325,153.300 124.665 M218.038 125.089 C 215.979 126.103,213.647 128.733,213.350 130.377 C 212.827 133.262,211.763 134.738,210.107 134.876 C 207.184 135.118,206.793 138.380,209.637 138.800 C 211.302 139.046,211.499 139.770,210.658 142.550 C 210.317 143.678,209.843 146.289,209.604 148.354 C 209.366 150.418,209.011 152.406,208.816 152.771 C 208.621 153.135,208.258 154.956,208.011 156.817 C 207.207 162.863,205.476 165.192,201.824 165.142 C 200.016 165.117,199.097 166.007,199.283 167.600 C 199.625 170.526,208.359 168.518,210.119 165.108 C 210.491 164.389,210.953 163.530,211.145 163.200 C 211.776 162.118,212.910 157.074,213.393 153.200 C 213.654 151.110,214.155 148.320,214.506 147.000 C 214.858 145.680,215.293 143.340,215.473 141.800 L 215.800 139.000 217.800 138.666 C 218.900 138.482,220.174 138.261,220.631 138.175 C 223.340 137.667,222.351 134.891,219.400 134.717 C 217.546 134.609,217.391 134.519,217.273 133.492 C 216.989 131.025,219.841 128.131,222.131 128.561 C 224.473 129.000,226.351 125.618,224.216 124.806 C 222.608 124.195,219.571 124.334,218.038 125.089 M111.854 134.607 C 108.813 136.115,107.372 138.556,107.765 141.533 C 107.995 143.278,109.097 145.600,109.694 145.600 C 109.871 145.600,110.729 146.050,111.600 146.600 C 112.471 147.150,113.605 147.600,114.120 147.600 C 115.600 147.600,119.337 149.689,119.991 150.882 C 121.653 153.914,115.908 155.588,111.405 153.385 C 108.593 152.009,107.088 152.462,107.276 154.627 C 107.525 157.488,116.616 159.764,120.000 157.811 C 120.550 157.494,121.360 157.066,121.800 156.860 C 124.748 155.479,125.840 149.788,123.613 147.415 C 122.576 146.310,118.928 144.305,117.167 143.872 C 112.603 142.750,110.995 139.933,114.033 138.383 C 115.625 137.571,115.733 137.567,118.333 138.222 C 121.881 139.116,122.810 139.074,123.695 137.982 C 126.270 134.802,116.866 132.122,111.854 134.607 M136.200 134.048 C 131.671 135.088,130.490 135.588,130.244 136.567 C 129.657 138.904,131.276 139.381,135.640 138.157 C 138.733 137.289,141.717 138.142,142.565 140.137 C 143.423 142.154,142.379 142.962,139.072 142.842 C 134.344 142.670,131.710 143.850,128.800 147.442 C 128.007 148.421,127.946 154.049,128.726 154.309 C 129.015 154.405,129.401 154.876,129.583 155.355 C 130.653 158.170,138.415 159.341,144.258 157.568 C 148.036 156.422,148.004 156.492,147.979 149.424 C 147.939 137.427,147.345 135.986,141.792 134.398 C 138.737 133.524,138.535 133.512,136.200 134.048 M191.636 134.427 C 185.258 136.691,184.432 143.085,190.059 146.637 C 190.898 147.167,191.993 147.609,192.492 147.621 C 194.329 147.664,198.554 150.115,198.857 151.314 C 199.610 154.297,193.409 155.995,190.165 153.694 C 187.807 152.022,186.794 152.206,186.272 154.403 C 185.413 158.017,195.332 159.985,200.244 157.175 C 206.828 153.408,204.352 145.866,195.867 143.839 C 191.676 142.838,190.244 139.731,193.311 138.292 C 194.685 137.648,195.010 137.636,196.911 138.159 C 201.973 139.553,202.975 139.307,202.727 136.726 C 202.508 134.444,195.614 133.015,191.636 134.427 M230.656 134.379 C 225.021 135.915,222.056 141.632,223.196 148.759 C 223.881 153.045,225.945 156.800,227.614 156.800 C 227.867 156.800,228.531 157.160,229.091 157.600 C 232.197 160.043,239.838 158.018,242.326 154.091 C 244.661 150.407,244.901 141.296,242.732 138.684 C 240.690 136.224,239.315 135.174,237.426 134.632 C 233.934 133.630,233.469 133.613,230.656 134.379 M271.800 134.475 C 268.745 135.361,267.868 135.971,265.896 138.588 C 262.963 142.478,263.212 150.773,266.380 154.715 C 270.468 159.802,284.050 159.920,280.833 154.840 C 280.565 154.416,279.946 154.343,278.283 154.539 C 271.251 155.365,267.723 151.758,268.611 144.649 C 269.195 139.978,271.975 138.075,277.492 138.572 L 280.385 138.832 280.928 137.516 C 282.276 134.253,277.758 132.748,271.800 134.475 M168.892 134.792 C 161.709 136.495,159.015 149.124,164.557 155.110 C 168.236 159.083,179.018 159.604,181.342 155.920 C 182.180 154.591,180.676 153.210,178.916 153.694 C 172.591 155.434,166.882 153.195,167.273 149.128 L 167.400 147.800 174.481 147.600 C 182.417 147.376,182.604 147.309,182.593 144.680 C 182.563 137.007,176.872 132.900,168.892 134.792 M255.600 134.997 C 254.375 135.268,253.232 135.332,253.020 135.141 C 252.329 134.521,249.308 134.742,249.043 135.433 C 248.622 136.528,248.772 155.874,249.210 157.025 C 249.585 158.013,249.756 158.084,251.267 157.882 C 253.521 157.579,253.585 157.386,253.611 150.800 C 253.648 141.368,254.781 138.708,258.759 138.708 C 260.548 138.708,260.913 138.565,261.606 137.592 C 263.583 134.816,261.158 133.768,255.600 134.997 M290.437 134.864 C 285.090 136.401,282.497 142.929,284.159 150.673 C 284.451 152.034,284.981 153.438,285.336 153.793 C 285.691 154.149,286.211 154.755,286.491 155.141 C 288.934 158.507,299.653 159.711,302.249 156.910 C 303.397 155.670,303.395 155.724,302.388 154.074 L 301.580 152.747 300.243 153.574 C 296.864 155.662,290.970 154.058,289.232 150.578 C 287.791 147.694,288.018 147.600,296.435 147.600 C 304.782 147.600,304.644 147.674,304.300 143.392 C 303.747 136.496,297.700 132.777,290.437 134.864 M174.067 138.350 C 176.680 139.480,178.549 142.566,177.146 143.433 C 176.785 143.657,169.912 143.806,167.700 143.638 C 165.960 143.506,168.119 139.195,170.395 138.257 C 172.244 137.495,172.081 137.491,174.067 138.350 M296.875 138.648 C 298.440 139.444,299.723 142.829,298.700 143.462 C 298.362 143.670,292.568 143.788,289.700 143.645 C 287.557 143.538,289.680 139.374,292.408 138.334 C 294.240 137.635,294.987 137.688,296.875 138.648 M236.425 138.831 C 238.957 139.828,240.603 147.068,238.998 150.146 C 238.669 150.776,238.400 151.507,238.400 151.771 C 238.400 153.087,236.002 154.571,233.878 154.571 C 230.400 154.571,228.282 152.202,227.795 147.769 C 227.022 140.726,230.938 136.670,236.425 138.831 M141.876 147.436 C 142.572 148.388,142.560 152.828,141.859 153.787 C 139.950 156.398,132.797 154.195,132.808 151.000 C 132.820 147.409,139.839 144.650,141.876 147.436 M238.746 278.642 C 240.866 279.215,242.884 279.935,243.231 280.242 C 243.579 280.549,244.041 280.800,244.259 280.800 C 244.476 280.800,245.711 281.784,247.003 282.986 L 249.352 285.172 247.892 286.590 C 245.698 288.720,244.714 288.970,243.335 287.745 C 238.345 283.312,228.798 282.226,224.505 285.603 C 223.948 286.041,223.282 286.400,223.025 286.400 C 222.096 286.400,217.540 291.762,216.424 294.169 C 212.079 303.539,215.178 315.536,223.260 320.638 C 228.739 324.097,238.766 324.269,241.444 320.950 C 241.688 320.648,242.051 320.400,242.251 320.400 C 242.451 320.400,243.468 319.582,244.511 318.582 L 246.407 316.765 247.774 317.807 C 251.003 320.271,250.171 322.776,245.314 325.208 C 244.701 325.515,243.930 325.970,243.600 326.221 C 240.759 328.376,229.644 329.482,226.400 327.931 C 225.630 327.563,224.460 327.133,223.800 326.976 C 223.140 326.818,222.354 326.495,222.053 326.257 C 221.753 326.019,220.889 325.549,220.135 325.212 C 219.381 324.876,217.630 323.610,216.244 322.400 C 213.869 320.326,212.967 319.234,211.638 316.820 C 211.329 316.259,210.958 315.710,210.814 315.600 C 207.393 312.994,207.558 294.677,211.038 290.769 C 211.347 290.421,211.600 289.879,211.600 289.563 C 211.600 288.108,219.490 280.800,221.061 280.800 C 221.270 280.800,221.663 280.577,221.936 280.304 C 224.379 277.861,232.783 277.030,238.746 278.642 M158.792 281.783 C 159.456 283.204,160.000 284.563,160.000 284.804 C 160.000 285.045,160.348 285.907,160.774 286.721 C 161.200 287.534,162.026 289.280,162.609 290.600 C 163.192 291.920,164.014 293.666,164.435 294.479 C 164.856 295.293,165.200 296.159,165.200 296.404 C 165.200 296.885,166.750 300.439,169.750 306.840 C 170.328 308.072,170.800 309.277,170.800 309.517 C 170.800 309.758,171.143 310.550,171.561 311.277 C 171.980 312.005,172.444 313.183,172.592 313.895 C 173.052 316.109,174.852 315.781,175.832 313.306 C 176.724 311.054,177.934 308.383,178.815 306.721 C 179.247 305.907,179.606 305.007,179.613 304.721 C 179.619 304.434,180.068 303.300,180.609 302.200 C 181.150 301.100,181.594 299.907,181.596 299.549 C 181.598 299.191,181.848 298.692,182.150 298.441 C 182.453 298.190,182.925 297.182,183.200 296.200 C 183.475 295.218,183.947 294.210,184.250 293.959 C 184.552 293.708,184.800 293.212,184.800 292.857 C 184.800 292.502,185.250 291.264,185.800 290.106 C 186.350 288.948,187.250 287.052,187.800 285.894 C 188.350 284.736,188.800 283.589,188.800 283.345 C 188.800 283.101,189.269 282.062,189.842 281.036 L 190.884 279.172 194.742 279.286 L 198.600 279.400 198.600 303.200 L 198.600 327.000 196.512 327.120 C 192.488 327.353,192.800 328.910,192.800 308.586 C 192.800 293.438,192.715 290.800,192.229 290.800 C 191.539 290.800,190.401 291.873,190.396 292.529 C 190.394 292.788,189.950 293.900,189.409 295.000 C 188.868 296.100,188.418 297.270,188.410 297.600 C 188.402 297.930,188.037 298.740,187.600 299.400 C 187.163 300.060,186.804 300.852,186.803 301.160 C 186.800 301.697,185.552 304.556,183.956 307.679 C 183.540 308.493,183.200 309.375,183.200 309.641 C 183.200 310.174,181.630 313.775,180.394 316.079 C 179.957 316.893,179.594 317.793,179.587 318.079 C 179.581 318.366,179.132 319.500,178.591 320.600 C 178.050 321.700,177.606 322.904,177.604 323.276 C 177.602 323.648,177.417 324.066,177.194 324.204 C 176.971 324.342,176.530 325.072,176.214 325.827 C 175.222 328.202,170.833 327.143,170.787 324.518 C 170.781 324.123,170.332 322.900,169.791 321.800 C 169.250 320.700,168.806 319.507,168.804 319.149 C 168.802 318.791,168.542 318.283,168.226 318.021 C 167.910 317.759,167.527 316.972,167.376 316.272 C 167.224 315.573,166.780 314.370,166.388 313.600 C 165.997 312.830,165.192 311.030,164.600 309.600 C 164.008 308.170,163.180 306.334,162.762 305.521 C 162.343 304.707,162.000 303.841,162.000 303.596 C 162.000 303.097,160.386 299.384,159.185 297.121 C 158.753 296.307,158.400 295.296,158.400 294.875 C 158.400 294.453,158.054 293.668,157.631 293.131 C 157.209 292.593,156.702 291.534,156.506 290.777 C 156.308 290.012,155.894 289.400,155.575 289.400 C 155.086 289.400,154.970 292.218,154.800 308.200 L 154.600 327.000 152.000 327.000 L 149.400 327.000 149.297 303.426 C 149.215 284.831,149.300 279.784,149.697 279.532 C 149.974 279.356,151.861 279.209,153.892 279.206 L 157.584 279.200 158.792 281.783 "
      stroke="none"
      fill="#339bdc"
      fill-rule="evenodd"
    /></g>
</svg>
